<?xml version="1.0" encoding="UTF-8"?>
<svg id="Laag_1" xmlns="http://www.w3.org/2000/svg" version="1.1" viewBox="0 0 64.87 70.14">
  <!-- Generator: Adobe Illustrator 30.0.0, SVG Export Plug-In . SVG Version: 2.1.1 Build 123)  -->
  <defs>
    <style>
      .st0 {
        fill: #e03718;
      }

      .st1 {
        fill: #f7deed;
      }
    </style>
  </defs>
  <path class="st1" d="M64.5,32.98c-.09.37-.28.97-.77,1.56-.69.83-2.36,1.65-3.43,1.68-.04,0-.11,0-.15,0-.63,0-1.17-.14-1.58-.29-.09,0-.18,0-.28,0-.26,0-.5-.02-.74-.05-.12-.02-.24-.04-.35-.07-.05,0-.11,0-.16,0h-.1c-.49,0-.93-.09-1.29-.22h0c-.29,0-.58-.03-.86-.09-.42-.09-1.05-.31-1.65-.84-.39-.1-.84-.23-1.29-.44-.34,1.18-.76,2.45-1.19,3.51.28-.05.57-.08.87-.08.5,0,2.24.1,3.48,1.42.04.05.09.1.13.15.14.11.26.22.35.32,1.04,1.06,1.24,2.83,1.26,3.02.05.54,0,1.01-.08,1.4.21.1.4.21.56.29.82.04,1.61.36,2.23.93.82.75,1.26,1.83,1.17,2.94-.01.17,0,.31,0,.48.02,1.65-.57,2.88-1.75,3.66-.78.52-1.58.65-2.29.69-.29.09-.65.16-1.06.16-.08,0-.16,0-.25,0-.05,0-.11,0-.16-.02-.03,0-.07.02-.1.02-.1.28-.19.61-.27.87-.08.27-.16.54-.24.81-.13.41-.33.79-.59,1.13-1.31,1.69-2.93,1.94-3.77,1.94-1.71,0-2.93-.94-3.66-1.5l-.09-.07c-.75-.57-1.24-1.41-1.38-2.34-.15-1.01-.04-1.98.06-2.84,0-.04.01-.09.02-.14-.11-.03-.22-.07-.32-.11-.02,0-2.02-.9-2.75-2.53-.16.75-.32,1.94-.38,2.46-.03.24-.06.46-.09.65-.07.54-.1,1.02-.12,1.59-.04.86-.09,1.84-.33,3-.82,3.83-2.2,8.41-5.72,10.24-1.48,2.51-4.84,3.85-7.45,3.85-.38,0-.76-.03-1.11-.09-.42-.07-.88-.23-1.31-.49-.62-.14-1.28-.34-1.9-.77-.32-.22-.68-.55-.98-1-.49-.36-1.04-.81-1.42-1.62-.17-.36-.3-.7-.4-.97-.06-.17-.13-.34-.17-.43-.44-.92-.65-1.69-.65-2.46-.47-.53-.74-1.08-.93-1.48-.89-.77-1.36-1.94-1.22-3.15.07-.6.02-1.42-.03-2.3-.07-1.07-.14-2.29,0-3.49.03-.25.07-.5.14-.73,0-.06-.02-.12-.03-.18-.12-1.03.06-1.94.21-2.67,0-.03,0-.05.02-.08-.08-.36-.1-.73-.07-1.11.05-.64.25-1.2.49-1.84.08-.22.2-.56.25-.73.02-.31-.08-.63-.42-1.56-.08-.2-.42-.69-.64-1.01-.38-.54-.8-1.15-1.16-1.86-.08-.15-.14-.3-.19-.44-.16-.14-.32-.29-.48-.45-.89.74-1.89,1.17-2.72,1.54-.29.13-.71.31-.9.43-.43.49-.88.8-1.34,1.01-.53.41-1.07.59-1.38.67-.34.08-.69.12-1.03.12-1.33,0-2.53-.6-3.36-1.59-.12-.1-.23-.2-.34-.31-1.07-1.1-1.54-2.53-1.28-3.94.44-2.41,2.66-3.44,3.73-3.94.1-.05.2-.09.29-.13.16-.08.31-.15.47-.2.08-.06.17-.11.25-.16-.34.09-.81.22-1.38.22-.05,0-.12,0-.18,0-.04,0-.08,0-.12,0-.07,0-.14,0-.22,0-.28.07-.58.11-.92.11-.1,0-.23,0-.34-.02-1.18-.1-4.24-1.61-4.88-3.7-.19-.65-.71-2.89.84-4.48.31-.32.68-.57,1.08-.75.06-.03.11-.05.16-.08.36-.17,1.03-.49,1.97-.49.69,0,1.23.17,1.71.33.17.06.25.06.25.07.04,0,.23-.03.37-.05.34-.05.8-.12,1.39-.16.08,0,.2,0,.35,0,2.06,0,3.27.19,4.01.39.04-.55.13-1.21.3-1.91-.19.03-.38.04-.57.04-.3,0-.61-.04-.9-.11-.07,0-.15,0-.23,0-.66,0-1.32-.13-1.94-.4-.44-.18-.78-.43-1.07-.67-.35-.14-.73-.35-1.1-.67-.47-.24-.88-.56-1.26-.83-.09-.06-.21-.15-.29-.21-1.22-.52-3.12-1.87-2.49-5.11.3-1.5,1.51-2.65,3.02-2.87.06-.02.13-.04.2-.06.45-.14,1.14-.35,1.95-.35.93,0,1.76.27,2.45.74.06.02.11.04.17.07.44.19.83.46,1.15.79.29.08.57.18.83.33.52.28.85.61,1.14.94.25.15.52.35.78.61.41.41.72.88.95,1.4.21-.27.44-.49.67-.67-.01,0-.03,0-.04-.02-.89-.39-1.48-.99-1.87-1.56-.47-.24-.96-.59-1.41-1.09-.34-.15-.7-.37-1.06-.69-.05-.04-.1-.09-.14-.13-.21-.15-.4-.32-.57-.51-.05-.04-.1-.09-.15-.13-.73-.43-2.07-1.38-2.28-3.2-.17-.65-.16-1.34.07-2.02l.15-.45c.49-1.51,1.9-2.47,3.42-2.47.08,0,.16,0,.23,0,.3-.05.72-.12,1.2-.12.88,0,1.68.23,2.35.66.24.1.48.23.69.37.85.41,1.52,1.04,1.95,1.53.22.13.43.27.62.44.55.47.84.99,1.01,1.31.05.07.11.14.17.22.5.64.9,1.18,1.2,1.69l.03.05c.13.2.38.58.58,1.09.23-.06.46-.1.7-.11.5-.2,1.02-.35,1.53-.48-.23-.55-.64-1.62-.84-2.56-.09-.43-.13-.83-.16-1.15-.02-.16-.04-.4-.06-.49-.28-.92-.18-1.91.28-2.75l.14-.26c.21-.38.47-.71.78-.98.58-.7,1.29-1.02,1.67-1.16.38-.14.79-.21,1.2-.21.04,0,.08,0,.12,0l1.51.05c.67.02,1.31.23,1.87.6,1.34.89,1.61,2.13,2.04,4.17.1.46.43,2.03.48,2.65.01.17.03.42.03.72.43-.05.86-.1,1.26-.1.14-.65.37-1.25.66-1.72.12-.2.26-.39.41-.57.43-1.04,1.1-1.86,1.64-2.47.14-.29.34-.62.62-.93.75-.82,1.81-1.3,2.9-1.3.72,0,1.41.2,2.02.58l.33.07c1.18.26,2.15,1.1,2.59,2.23l.23.62c.44,1.14.26,2.43-.46,3.41l-.84,1.14c.82-.74,2.03-1.62,2.77-1.97.06-.03.13-.06.2-.09,1.17-.81,2.49-1.49,3.81-1.98.4-.15.82-.22,1.23-.22.74,0,1.47.23,2.09.67.07.05.13.1.19.15l.36.1c1.6.43,2.71,1.9,2.67,3.55v.26c-.02.35-.07.69-.17,1.01-.04.53-.21,1.05-.49,1.51-.39.67-.96,1.19-1.64,1.53-.64.53-1.44.85-2.33.92,0,0-.02,0-.03,0-.16.1-.32.19-.49.27-.18.15-.39.29-.61.42-.23.22-.55.51-.97.75-.12.07-.24.13-.36.18-.49.34-.95.5-1.17.58-.24.08-.48.16-.73.24.07.12.15.24.22.36.15.12.32.27.49.44.63-.42,1.33-.75,1.34-.75,1.12-.52,2.53-.85,3.66-1.12l.4-.1c.42-.1.87-.15,1.33-.15,1.09,0,2.18.29,3.05.81.39.24.69.51.91.77,1.63,1.19,1.9,2.77,1.82,3.93-.08,1.19-.7,2.57-2.18,3.27-.12.1-.24.18-.37.26-.58.36-1.24.55-1.9.55-.34,0-.69-.05-1.02-.15-.1,0-.2.01-.3.01-.21.1-.46.22-.74.31-.86.29-2.46.46-3.31.47.02.23.04.46.05.69.08-.03.16-.06.25-.09.52-.16,1.07-.24,1.63-.24.93,0,1.69.22,2.25.38.11.03.27.08.34.09.16.02.39.05.65.08.16.02.4.05.61.07.26-.06.59-.1.96-.1.17,0,.35,0,.52.03.83.1,1.46.45,1.86.7.83.15,1.6.59,2.15,1.27.25.3.44.64.57,1,.14.28.24.59.31.9.15.78.04,1.57-.3,2.26Z"/>
  <path class="st0" d="M37.31,12.08c.77.49,1.22.27,1.48.43.19.12.22.39.3.43.51.29,1.66.55,2.21.89.26.16.32.54.62.71.24.14.5.03.58.08.21.13.61.62,1.06.89,1.6.98,2.07,2.66,3.21,4.28.09.13.66.5.75.68.25.54.54,1.33.74,1.86.5,1.27.3,1.4.32,2.58,0,.08.27.06.34.33.3,1.08.3,4.09.16,5.2-.16,1.29-1.6,6.07-2.29,7.1-.49.73-1.65,1.37-2.26,2.02-1.11,1.19-1.99,2.55-3.22,3.73-.56.54-.56.67-.92,1.19-.33.49-1.17,1.27-1.41,1.68-.57.97-.83,3.63-.99,4.78-.23,1.61-.09,2.79-.41,4.34-.52,2.45-1.56,6.76-4.02,7.88-.25.11-1.04.23-1.09.3-.07.12.04.5-.08.77-.68,1.54-3.43,2.51-5,2.25-.1-.02-.08-.21-.15-.24-.36-.11-1.32-.24-1.57-.42-.11-.08-.06-.28-.13-.35-.25-.27-1.02-.73-1.08-.85-.23-.49-.38-.98-.59-1.42-.59-1.24-.13-1.02-.13-2.09,0-.76-.7-.83-1.02-1.16-.47-.48-.58-1.5-1.32-1.87.22-1.82-.23-4-.03-5.8.07-.61.38-.79.39-.83.03-.23-.24-.58-.28-.91-.09-.8.31-1.85.34-2.7,0-.19-.18-.3-.17-.45.03-.37.63-1.66.71-2.34.16-1.27-.2-2.23-.62-3.36-.39-1.05-1.4-2.13-1.96-3.22-.12-.23-.08-.59-.21-.82-.13-.22-.94-.73-1.05-.93-.21-.38-.29-.54-.52-.93-.61-1-1.5-3.06-1.65-4.19-.04-.28.2-.4.2-.5s-.43-.54-.46-.82c-.07-.59,0-1.5-.03-2.08-.01-.21-.13-.38-.26-.54l.4-.4-.27-.13.27-.13c-.64-.47.03-1,.01-1.46,0-.29-.24-.43-.26-.65-.08-.84.39-3.27,1.17-3.71l-.28-.26c.07-.29.17-.63.29-.89.17-.36.79-1.1,1-1.47.09-.16.03-.4.16-.57.23-.3,1.79-.49,1.47-1.24l.53.13c0-.18,0-.36.07-.52.33-.69,1.78-2.18,2.34-2.48.2-.11.56.1.49-.3l.33.26c.11-.1.2-.25.34-.32,1.12-.55,2.71-.79,3.92-.97,1.29-.2,2.13-.36,3.39-.44,1.01-.06,3.24-.59,4.09-.47.39.05,1,.41,1.35.47.19.03.62-.13.69-.09ZM37.29,14.21c-2.41-1.06-2.73-.72-5.2-.5-.43.04-.87-.06-1.23-.02-.61.07-1.01.53-1.72.21l.07.26c-.41,0-.75-.18-1.15,0-.64.3-1.68.36-2.36.6-2.49.87-2.05,1.74-3.69,3.05-.39.31-1.38,1.01-1.78,1.51-1.86,2.38-1.95,5.52-2.06,8.38.39.07.13.91.14,1.32,0,.19.09.36.14.53l-.27.2c.52-.06.08.29.15.57.04.15.27.25.34.44.07.21,0,.79.08,1.13.19.71.78,1.59.62,2.22.51-.11.33.2.45.34.4.52.22.65.42.97.07.11.3.16.43.36.14.21.19.78.24.84.17.21.48.19.56.28.03.03-.11.4.15.72.15.18.39.05.46.18.25.42.35,1.33.61,1.75.38.61.66,1.2,1.06,1.86.06.1.14.13.25.11l-.26.39.4-.13c.05.69.56,1.66.54,2.32,0,.27-.22.42-.22.52,0,.12.19.3.2.52.01.34-.43,1.73-.24,1.92.58-.19.93.51,1.18.59.27.1,1.84.39,2.31.49,1.1.23,4.48.74,5.53.47.3-.08.5-.28.83-.35.44-.09,1.09-.08,1.52.07.33-.15.67-1.95.87-2.44.42-1,2.52-3.9,3.34-4.58.23-.19.95-.51,1.03-.63.1-.16.09-.48.3-.79.83-1.19,3.1-2.71,3.71-3.99.93-1.98,1.95-5.8,1.84-7.93-.03-.71-.23-1.44-.27-2.12-.02-.4.38.15.27-.26-.38-1.31-.81-2.53-1.41-3.74-.16-.32-.32-.98-.44-1.15-.15-.21-.4-.16-.49-.24-.2-.2-.87-1.65-1.09-1.98-.77-1.16-3.21-2.58-4.4-3.3-.61-.37-1.06-.68-1.73-.97ZM25.54,49.08c-.13-.07-.44.13-.69.1-.36-.04-.96-.88-1.01.06-.1,1.89,1.01,2.99,2.78,3.42.96.23,2.12.12,3.1.36.36.09,2.22.81,2.38.79.19-.5.54-.24.94-.54h.2s.07.4.07.4c.42-.3,1.23-.22,1.65-.47.47-.27.63-2.27.65-2.83-.25-.29-1.9.26-2.31.26-.24,0-.16-.24-.25-.25-.22-.03-.79.1-.99.24l.13-.39c-.17-.13-1.1.22-1.25.21-.16-.02-.31-.24-.67-.23-.25,0-.2.27-.26.28-.39.1-.31-.26-.41-.27-.22-.03-.46.14-.63.11-.16-.03-.33-.35-.58-.47-.84-.38-1.78-.26-2.84-.8ZM25.26,54c-.68-.26-1.43-.83-2.06-.72-.06.22.25.06.27.21.13.71-.6.6.63,1.33,1.68.99,3.47,1.91,4.94,2.19.42.08,1.38.46,1.52.47.22.02.4-.21.51-.2s.23.26.39.31c.47.14,1.44-.14,1.99.2l.32-.28.13.39c-.07-.41.4-.17.6-.39.13-.15.67-2.1.58-2.24-.51-.18-1.2-.06-1.77,0-.22.02-.39.21-.56.23-.34.04-.92-.49-1.17.16l.2-.53c-.52-.02-1.1.13-1.52-.27l-.13.26c-.26-.41-.7-.19-1.05-.27-.68-.17-1.13-.68-1.92-.12l.13-.39c-.44.15-.77-.18-1.1-.22-.49-.07-.41.08-.93-.12ZM33.63,59.63c-.39.15-.66-.11-1.1-.08-1.29.1-1.99.04-3.29-.21-.85-.17-2.07-.42-2.84-.73-1.02-.41-1.9-1.14-2.95-1.49-.01.3.04.68.39.66l-.26.2c.31.22.24.63.41.91.04.07,1.15,1.05,1.22,1.1.12.07,2.37.77,2.56.8.17.02.39-.12.58-.09v.4c.36.07.19-.08.33-.26.37.59.61.26,1.05.28,1.12.05,2,.52,3.02-.17.43-.29.85-.75.88-1.3ZM27.26,62.32c-.52-.3-.78-.09-1.03-.11-.28-.02-.76-.51-.92-.14.65.26.23,1.02.54,1.57.83,1.46,3.32.54,4.35-.25,0-.18-1.49-.63-1.71-.67-.28-.04-.25.37-.98-.08-.14-.09-.18-.3-.24-.33ZM52.37,41.55c.12.13.09.38.2.47.08.05.28,0,.33.05.03.03.25.8.25.86.06.58-.41,1.06-.22,1.96.06.29.3.36.36.56.06.19.12.95.21,1.06.43.56,1,.44,1.42.62.68.29,1.3.87,2.11.73-.11,1.46.33,1.5-1.18,1.53-.15,0-.28.14-.34.14-.4-.03-.6-.39-1.19.06l-.26-.28c-2.15.59-2.42,2.57-3,4.41-.83,1.07-1.65.38-2.5-.27-.21-1.45.68-3.78-.2-5.05-.09-.13-1.25-.95-1.38-1-.16-.06-.36.35-.92.13-.05-.02-.74-.58-.76-.62-.12-.34.13-.64-.37-.75l.07-.34c.34.15.27-.18.46-.33.59-.49.83-.09,1.18-.16.14-.03.23-.25.34-.28,1.27-.39,1.28.01,2.39-1.2.32-.35.72-.96.99-1.45.04-.07-.02-.26.05-.37.03-.04.76-.67.81-.69.3-.14.95.01,1.15.23ZM50.95,45.62l-1.37.96-.48-.04c-.22.28.78.75.86.93.07.15-.07.33,0,.52.09.24.54.53.66.8l1.65-1.26c.02-.09-.56-.81-.67-.92-.14-.14-.43-.14-.49-.23-.09-.12-.08-.68-.16-.76ZM49.78,10.15c-.46.33-.26.13-.54.27-.51.24-1.77,1.21-2.15,1.64-.16.19-.12.51-.48.54.24,1.43,1.03,1.21,2.2.8.62-.22.29-.28.37-.42.14-.24.37.04.59-.08.17-.1.35-.36.54-.51.33-.27.78-.17.65-.87.24-.05.08.22.13.26.05.04,1.04-.29.79-.66.61.31.49-.1.62-.13.38-.09,1.06.2,1.29-.26.04-.08-.07-.26-.05-.26.04-.02.58.16.77-.16l-.09-.71.25-.06v-.26s-1.72-.46-1.72-.46v-.33c-1.09.4-2.18.97-3.15,1.67ZM14.28,35.18c-.05-.08-.71-.57-.83-.63-1.07-.48-2.41.98-3.38,1.32-.26.55-.61.31-.87.44-.87.45-2.93,1.14-1.8,2.3l.2-.26c.07.52.49,1.21,1.1,1.06.09-.02.07-.23.18-.26.93-.24.46-.24,1.18-.77,1.07-.8,2.92-1.18,3.84-2.17.16-.17.5-.81.38-1.02ZM12.23,6.5l-.15.45.27.14c-.59.49.37.84.76,1.08.22.13.18.45.69.31l-.14.26c.54-.13.32.26.48.41.2.18.86.24,1.11.46.1.08.03.29.18.46.47.54,1.18.51,1.27.58.18.14.3.99.8,1.2.31.13.47-.05.7-.03.18.02.37.35.74.08.11-.43-.2-.74-.39-1.08-.26-.46-.89-1.23-1.24-1.7-.13-.17-.27-.52-.38-.61-.29-.25-.59-.02-.62-.04-.02-.02-.02-.31-.13-.47-.19-.27-1.12-1.25-1.38-.98l-.14-.25-.32.11c-.26-.99-1.5-.19-2.12-.39ZM57.88,19.6c-.45-.27-1.16-.37-1.67-.24-.99.24-2.49.56-3.41.99-.12.05-.93.52-.97.55-.41.41-.19,1.17.31,1.4.33.15,2.24-.08,2.67-.23.51-.17.91-.57,1.49-.63.04-.02-.17-.77.4.13.27-.36,1.2-.27,1.32.13.29-.18.07-.39.07-.66.25.02,0,.37.46.27.22-.05.32-.09.34-.33.05-.7-.33-.73-.75-1.04-.08-.06-.12-.25-.26-.33ZM40.8,4.81c-.1.11-.08.31-.16.4-.64.74-1.63,1.72-1.59,2.74-.6-.2-.94,1.33-.69,1.8l-.35.2.14.49.91.16-.07.26c.35-.04.53-.17.46-.53l.66.13-.53-.53.85-.13.42-1.19,2.01-2.74-.24-.62-.98-.22-.21.27c.04-.39-.31-.85-.63-.49ZM59.47,30.42c-.29-.04-.54.15-.79.14-.27,0-1.49-.17-1.93-.22-.85-.09-1.79-.65-2.72-.36-.39.12-1.1.5-.74.97.49.28,1.52.38,1.89.6.21.12.23.44.36.47.25.05.54-.13.75-.11.25.03.41.34.65.33.17,0,.37-.2.55-.18.13,0,.35.25.59.28.34.05.8-.06,1.1-.02.23.03.62.33.98.32.04,0,.77-.36.8-.39.06-.07.12-.66.3-.83l-.23-.09.09-.23c-.59.1-1.31-.63-1.66-.67ZM3.65,27.39c-.09.09-.02.74.03.92.07.22,1.57,1.14,1.75,1.16.31.03.58-.65.9-.11.25-.58.5,0,.54,0,.22,0,.77-.21,1.12-.22,1.36-.05,1.5.07,2.78-.63.12-.06.25-.08.38-.08l-.26-.39h.66s-.13-.47-.13-.47c-.2-.13-2.81-.28-3.19-.25-1.43.09-1.86.45-3.33-.02-.73-.23-.62-.2-1.25.09ZM29.61,9.22c.44-.06.35-1.12.32-1.47-.04-.48-.74-3.99-.92-4.11l-1.51-.05c-.31.11-.05.64-.48.46l-.14.26c.19.62.18,1.36.3,1.95.14.65.51,1.63.75,2.18.09.21.11.46.15.68l1.52.09ZM6.34,14.94c-.23,1.18.17.93.8,1.33.42.26,1.03.78,1.41.97.18.09.54.04.61.12.05.05-.01.27.04.33.09.1.39.06.55.16.09.06.51.52.65.58.74.31,1.03-.14,1.68.23.15-.49.28-1.26-.12-1.66-.15-.15-.39-.14-.49-.24-.13-.12-.53-.65-.58-.68-.2-.11-.39.04-.53-.01-.43-.17-1.05-.5-1.19-.98l-.52.26c-.09-1.41-1.45-.5-2.31-.41ZM28.88,29.36l-.26.26c.27.1.6-.02.84.14.06.04.96.88.98.95.06.14-.13.66-.07.74.06.07.3.1.43.29.58.84.6,2.31.52,3.31l1.32.38c.33-.08.2-1.15.26-1.49.37-2.01,1.04-3.59,2.81-4.36.05-.02.04-.21.13-.22.22-.04.44.14.67.04s.3-.46.36-.43c.07.03.14.19.33.21.49.07,1.2-.17,1.75.06.18.07,1.31.89,1.39.92.23.07.68-.02.96.14-.26.46.09.61.18.94.3,1.19-.33,2.45-1.16,3.29-.45.45-2.97,2.04-3.5,2.19-.35.1-1.33.05-1.44.09-.03.01-.41.5-.43.55-.13.33-.31,1.58-.37,2.02-.06.48-.1,1.09-.03,1.57l-.39.06c-.06.22.22.06.26.21,0,.04,0,.68,0,.77-.03.48-.41,1.55-.4,1.85,0,.08.28.02.29.27.02.42-.23,1.15-.27,1.61-.03.27.12.49.09.74-.02.19-.28,1.25-.43,1.26l-1.91-.51c-.02-.16-.06-.32-.09-.49-.14-.93.33-2.18.41-3.13s0-2.07.08-3.02c.05-.63.59-3.34.25-3.66-.35.22-.5,0-.73-.26-.59.68-.28,1.71-.84,2.31.56.4.18.51.18.92-.03,1.56-.09,4.19-.35,5.65-.02.1-.33,1.03-.36,1.08-.08.11-.26.06-.35.13-.17.13-.15.41-.54.25-.47-.19-.45-.79-.96-.7-.12-.39.25-.63.27-.99.02-.25-.36-.19-.38-.54,0-.22.15-.39.16-.56.07-1.1.12-2.18.22-3.24.14-1.57.46-3.14.32-4.71-.44,0-.54-.22-.84-.36-.74-.33-1.31-.42-2.02-.62-.3-.09-1.88-1.54-2.11-1.86-.62-.83-.72-1.95-.57-2.95.42-1.15,1.68-2.19,2.91-1.79.84-.1,1.59.78,2.43.71ZM27.65,30.72c-.1-.07-1.1-.3-1.23-.29-.88.05-.79,2.07-.32,2.42.61.45.21.21.45.58.33.52.63.27.87.37.52.21.98.6,1.6.59.25-1.26-.47-2.05-.83-3.14-.31-.05-.41-.44-.53-.53ZM39.15,32.5c.81-1.25-1.32-2.08-2.05-1.65-.06.04-.08.23-.17.29-.19.13-.42.18-.58.35-.85.89-1.2,2.49-1.27,3.69l.13-.26c.9.19,1.19-.93,1.92-.54.22-.08.06-.35.09-.37.25-.19.29-.17.63-.48.24-.22,1.18-.85,1.29-1.02Z"/>
</svg>